 http://www.traileraddict.com/trailer/enemies-among-us/trailer

Enemies.Among.Us.2010.DVDRip.Mp4.FEEL-FREE 
http://www.imdb.com/title/tt1462044/
Genre::Action | Drama 
http://www.starshare.ro/bitbucket/Enemies.Among.Us.2010.DVDRip.Mp4.FEEL-FREE.mp4_thumbs_%5B2010.07.06_13.02.56%5D.jpg

General
Complete name : Enemies.Among.Us.2010.DVDRip.Mp4.FEEL-FREE
Format : MPEG-4
Format profile : Base Media
Codec ID : isom
File size : 726 MiB
Duration : 1h 15mn
Overall bit rate : 1 339 Kbps

Video
ID : 1
Format : MPEG-4 Visual
Format profile : Simple@L1
Format settings, BVOP : No
Format settings, QPel : No
Format settings, GMC : No warppoints
Format settings, Matrix : Default (H.263)
Codec ID : 20
Duration : 1h 15mn
Bit rate mode : Variable
Bit rate : 1 196 Kbps
Width : 720 pixels
Height : 304 pixels
Display aspect ratio : 2.35:1
Frame rate mode : Constant
Frame rate : 23.976 fps
Resolution : 24 bits
Colorimetry : 4:2:0
Scan type : Progressive
Bits/(Pixel*Frame) : 0.228
Stream size : 648 MiB (89%)
Writing library : Lavc51.40.4

Audio
ID : 2
Format : AAC
Format/Info : Advanced Audio Codec
Format version : Version 4
Format profile : LC
Format settings, SBR : No
Codec ID : 40
Duration : 1h 15mn
Bit rate mode : Variable
Bit rate : 139 Kbps
Channel(s) : 6 channels
Channel positions : Front: L C R, Rear: L R, LFE
Sampling rate : 48.0 KHz
Resolution : 16 bits
Stream size : 75.2 MiB (10%)